<svg xmlns="http://www.w3.org/2000/svg" viewBox="0 0 500 500" width="500" height="500">
  <circle cx="250.0" cy="250.0" r="242.78" fill="#3f3f3f" />
  <path d="M 213.79,72.84 L 215.21,109.72 L 202.44,78.52 L 171.23,87.03 L 196.77,105.47 L 182.58,113.98 L 189.67,136.67 L 145.70,96.96 L 114.50,122.49 L 117.33,138.09 L 100.31,138.09 L 181.16,145.18 L 189.67,157.95 L 121.59,152.28 L 127.26,170.72 L 87.55,157.95 L 79.03,180.64 L 97.47,187.74 L 74.78,193.41 L 71.94,220.36 L 125.84,183.48 L 192.51,201.92 L 113.08,199.08 L 145.70,211.85 L 71.94,235.96 L 76.20,262.91 L 157.05,230.29 L 141.45,258.66 L 97.47,267.17 L 121.59,277.10 L 103.15,291.28 L 111.66,298.37 L 162.72,250.15 L 166.98,272.84 L 181.16,255.82 L 198.18,267.17 L 178.33,231.71 L 213.79,224.62 L 222.30,328.16 L 168.40,366.46 L 189.67,376.39 L 203.86,359.37 L 192.51,397.67 L 209.53,427.45 L 222.30,427.45 L 209.53,401.92 L 233.64,367.88 L 225.13,409.01 L 236.48,423.20 L 254.92,416.11 L 246.41,470.01 L 259.18,430.29 L 270.52,431.71 L 267.69,467.17 L 276.20,450.15 L 293.22,462.91 L 247.83,365.04 L 273.36,413.27 L 280.45,397.67 L 296.06,403.34 L 308.82,458.66 L 308.82,418.94 L 338.61,454.40 L 327.26,420.36 L 276.20,382.06 L 284.71,356.53 L 300.31,384.90 L 321.59,389.16 L 298.89,377.81 L 307.40,357.95 L 264.85,336.67 L 260.60,237.38 L 274.78,223.20 L 304.57,228.87 L 286.13,265.75 L 303.15,255.82 L 317.33,271.42 L 321.59,250.15 L 355.63,291.28 L 381.16,298.37 L 359.89,275.68 L 386.84,267.17 L 348.54,262.91 L 325.84,231.71 L 341.45,226.03 L 355.63,250.15 L 371.23,238.80 L 402.44,262.91 L 413.79,237.38 L 341.45,214.69 L 369.81,199.08 L 293.22,196.25 L 362.72,183.48 L 413.79,220.36 L 410.95,194.83 L 386.84,187.74 L 405.28,174.97 L 396.77,157.95 L 358.47,169.30 L 361.30,152.28 L 294.64,157.95 L 342.86,138.09 L 384.00,145.18 L 369.81,122.49 L 331.52,98.37 L 294.64,136.67 L 301.73,112.56 L 287.55,105.47 L 314.50,85.61 L 284.71,77.10 L 270.52,109.72 L 270.52,72.84 L 256.34,87.03 L 246.41,71.42 L 233.64,87.03 Z" fill="white" />
</svg>