<svg width="1200" height="800" viewBox="0 0 1200 800" fill="none" xmlns="http://www.w3.org/2000/svg">
  <rect width="1200" height="800" fill="#dbeafe"/>
  <rect y="470" width="1200" height="330" fill="#bbf7d0"/>
  <path d="M0 470L190 250L345 420L520 205L710 455L900 230L1200 470H0Z" fill="#1f2937"/>
  <path d="M520 205L590 298L548 289L512 235L472 285L430 292L520 205Z" fill="#f8fafc"/>
  <path d="M900 230L978 330L927 318L895 265L858 318L805 330L900 230Z" fill="#f8fafc"/>
  <circle cx="980" cy="145" r="64" fill="#facc15"/>
  <rect x="80" y="560" width="350" height="90" rx="14" fill="#ffffff" opacity="0.85"/>
  <rect x="112" y="588" width="190" height="14" rx="7" fill="#2563eb"/>
  <rect x="112" y="616" width="270" height="12" rx="6" fill="#64748b"/>
</svg>
